# Tiled2Unity generated file. Do not modify by hand.
# Wavefront file for 'girlRoom2_mesh_0002.obj'

# Vertices (Count = 36)
v -420 -280 0
v -490 -280 0
v -490 -210 0
v -420 -210 0
v -490 -280 0
v -560 -280 0
v -560 -210 0
v -490 -210 0
v -560 -280 0
v -630 -280 0
v -630 -210 0
v -560 -210 0
v -630 -280 0
v -700 -280 0
v -700 -210 0
v -630 -210 0
v -700 -280 0
v -770 -280 0
v -770 -210 0
v -700 -210 0
v -770 -280 0
v -840 -280 0
v -840 -210 0
v -770 -210 0
v -840 -280 0
v -910 -280 0
v -910 -210 0
v -840 -210 0
v -910 -280 0
v -980 -280 0
v -980 -210 0
v -910 -210 0
v -980 -280 0
v -1050 -280 0
v -1050 -210 0
v -980 -210 0

# Texture cooridinates (Count = 4)
vt 0 0.5
vt 1 0.5
vt 1 1
vt 0 1

# Normal
vn 0 0 -1

# Mesh description
g girlRoom2_mesh_0002

# Faces
f 1/1/1 2/2/1 3/3/1 4/4/1
f 5/1/1 6/2/1 7/3/1 8/4/1
f 9/1/1 10/2/1 11/3/1 12/4/1
f 13/1/1 14/2/1 15/3/1 16/4/1
f 17/1/1 18/2/1 19/3/1 20/4/1
f 21/1/1 22/2/1 23/3/1 24/4/1
f 25/1/1 26/2/1 27/3/1 28/4/1
f 29/1/1 30/2/1 31/3/1 32/4/1
f 33/1/1 34/2/1 35/3/1 36/4/1

