# Tiled2Unity generated file. Do not modify by hand.
# Wavefront file for 'projectionRoom_mesh_0002.obj'

# Vertices (Count = 24)
v -350 -700 0
v -420 -700 0
v -420 -630 0
v -350 -630 0
v -420 -700 0
v -490 -700 0
v -490 -630 0
v -420 -630 0
v -490 -700 0
v -560 -700 0
v -560 -630 0
v -490 -630 0
v -350 -980 0
v -420 -980 0
v -420 -910 0
v -350 -910 0
v -420 -980 0
v -490 -980 0
v -490 -910 0
v -420 -910 0
v -490 -980 0
v -560 -980 0
v -560 -910 0
v -490 -910 0

# Texture cooridinates (Count = 8)
vt 0 0
vt 0.3333333 0
vt 0.3333333 1
vt 0 1
vt 0.6666667 0
vt 0.6666667 1
vt 1 0
vt 1 1

# Normal
vn 0 0 -1

# Mesh description
g projectionRoom_mesh_0002

# Faces
f 1/1/1 2/2/1 3/3/1 4/4/1
f 5/2/1 6/5/1 7/6/1 8/3/1
f 9/5/1 10/7/1 11/8/1 12/6/1
f 13/1/1 14/2/1 15/3/1 16/4/1
f 17/2/1 18/5/1 19/6/1 20/3/1
f 21/5/1 22/7/1 23/8/1 24/6/1

