# Tiled2Unity generated file. Do not modify by hand.
# Wavefront file for 'LivingRoom_mesh_0008.obj'

# Vertices (Count = 12)
v -700 -490 0
v -770 -490 0
v -770 -420 0
v -700 -420 0
v -770 -490 0
v -840 -490 0
v -840 -420 0
v -770 -420 0
v -840 -490 0
v -910 -490 0
v -910 -420 0
v -840 -420 0

# Texture cooridinates (Count = 8)
vt 0 0.3333333
vt 0.3333333 0.3333333
vt 0.3333333 0.6666666
vt 0 0.6666666
vt 0.6666667 0.3333333
vt 0.6666667 0.6666666
vt 1 0.3333333
vt 1 0.6666666

# Normal
vn 0 0 -1

# Mesh description
g LivingRoom_mesh_0008

# Faces
f 1/1/1 2/2/1 3/3/1 4/4/1
f 5/2/1 6/5/1 7/6/1 8/3/1
f 9/5/1 10/7/1 11/8/1 12/6/1

