# Tiled2Unity generated file. Do not modify by hand.
# Wavefront file for 'girlRoom_mesh_0001.obj'

# Vertices (Count = 728)
v 0 -70 0
v -70 -70 0
v -70 0 0
v 0 0 0
v -70 -70 0
v -140 -70 0
v -140 0 0
v -70 0 0
v -140 -70 0
v -210 -70 0
v -210 0 0
v -140 0 0
v -210 -70 0
v -280 -70 0
v -280 0 0
v -210 0 0
v -280 -70 0
v -350 -70 0
v -350 0 0
v -280 0 0
v -350 -70 0
v -420 -70 0
v -420 0 0
v -350 0 0
v -420 -70 0
v -490 -70 0
v -490 0 0
v -420 0 0
v -490 -70 0
v -560 -70 0
v -560 0 0
v -490 0 0
v -560 -70 0
v -630 -70 0
v -630 0 0
v -560 0 0
v -630 -70 0
v -700 -70 0
v -700 0 0
v -630 0 0
v -700 -70 0
v -770 -70 0
v -770 0 0
v -700 0 0
v -770 -70 0
v -840 -70 0
v -840 0 0
v -770 0 0
v -840 -70 0
v -910 -70 0
v -910 0 0
v -840 0 0
v 0 -140 0
v -70 -140 0
v -70 -70 0
v 0 -70 0
v -70 -140 0
v -140 -140 0
v -140 -70 0
v -70 -70 0
v -140 -140 0
v -210 -140 0
v -210 -70 0
v -140 -70 0
v -210 -140 0
v -280 -140 0
v -280 -70 0
v -210 -70 0
v -280 -140 0
v -350 -140 0
v -350 -70 0
v -280 -70 0
v -350 -140 0
v -420 -140 0
v -420 -70 0
v -350 -70 0
v -420 -140 0
v -490 -140 0
v -490 -70 0
v -420 -70 0
v -490 -140 0
v -560 -140 0
v -560 -70 0
v -490 -70 0
v -560 -140 0
v -630 -140 0
v -630 -70 0
v -560 -70 0
v -630 -140 0
v -700 -140 0
v -700 -70 0
v -630 -70 0
v -700 -140 0
v -770 -140 0
v -770 -70 0
v -700 -70 0
v -770 -140 0
v -840 -140 0
v -840 -70 0
v -770 -70 0
v -840 -140 0
v -910 -140 0
v -910 -70 0
v -840 -70 0
v 0 -210 0
v -70 -210 0
v -70 -140 0
v 0 -140 0
v -70 -210 0
v -140 -210 0
v -140 -140 0
v -70 -140 0
v -140 -210 0
v -210 -210 0
v -210 -140 0
v -140 -140 0
v -210 -210 0
v -280 -210 0
v -280 -140 0
v -210 -140 0
v -280 -210 0
v -350 -210 0
v -350 -140 0
v -280 -140 0
v -350 -210 0
v -420 -210 0
v -420 -140 0
v -350 -140 0
v -420 -210 0
v -490 -210 0
v -490 -140 0
v -420 -140 0
v -490 -210 0
v -560 -210 0
v -560 -140 0
v -490 -140 0
v -560 -210 0
v -630 -210 0
v -630 -140 0
v -560 -140 0
v -630 -210 0
v -700 -210 0
v -700 -140 0
v -630 -140 0
v -700 -210 0
v -770 -210 0
v -770 -140 0
v -700 -140 0
v -770 -210 0
v -840 -210 0
v -840 -140 0
v -770 -140 0
v -840 -210 0
v -910 -210 0
v -910 -140 0
v -840 -140 0
v 0 -280 0
v -70 -280 0
v -70 -210 0
v 0 -210 0
v -70 -280 0
v -140 -280 0
v -140 -210 0
v -70 -210 0
v -140 -280 0
v -210 -280 0
v -210 -210 0
v -140 -210 0
v -210 -280 0
v -280 -280 0
v -280 -210 0
v -210 -210 0
v -280 -280 0
v -350 -280 0
v -350 -210 0
v -280 -210 0
v -350 -280 0
v -420 -280 0
v -420 -210 0
v -350 -210 0
v -420 -280 0
v -490 -280 0
v -490 -210 0
v -420 -210 0
v -490 -280 0
v -560 -280 0
v -560 -210 0
v -490 -210 0
v -560 -280 0
v -630 -280 0
v -630 -210 0
v -560 -210 0
v -630 -280 0
v -700 -280 0
v -700 -210 0
v -630 -210 0
v -700 -280 0
v -770 -280 0
v -770 -210 0
v -700 -210 0
v -770 -280 0
v -840 -280 0
v -840 -210 0
v -770 -210 0
v -840 -280 0
v -910 -280 0
v -910 -210 0
v -840 -210 0
v 0 -350 0
v -70 -350 0
v -70 -280 0
v 0 -280 0
v -70 -350 0
v -140 -350 0
v -140 -280 0
v -70 -280 0
v -140 -350 0
v -210 -350 0
v -210 -280 0
v -140 -280 0
v -210 -350 0
v -280 -350 0
v -280 -280 0
v -210 -280 0
v -280 -350 0
v -350 -350 0
v -350 -280 0
v -280 -280 0
v -350 -350 0
v -420 -350 0
v -420 -280 0
v -350 -280 0
v -420 -350 0
v -490 -350 0
v -490 -280 0
v -420 -280 0
v -490 -350 0
v -560 -350 0
v -560 -280 0
v -490 -280 0
v -560 -350 0
v -630 -350 0
v -630 -280 0
v -560 -280 0
v -630 -350 0
v -700 -350 0
v -700 -280 0
v -630 -280 0
v -700 -350 0
v -770 -350 0
v -770 -280 0
v -700 -280 0
v -770 -350 0
v -840 -350 0
v -840 -280 0
v -770 -280 0
v -840 -350 0
v -910 -350 0
v -910 -280 0
v -840 -280 0
v 0 -420 0
v -70 -420 0
v -70 -350 0
v 0 -350 0
v -70 -420 0
v -140 -420 0
v -140 -350 0
v -70 -350 0
v -140 -420 0
v -210 -420 0
v -210 -350 0
v -140 -350 0
v -210 -420 0
v -280 -420 0
v -280 -350 0
v -210 -350 0
v -280 -420 0
v -350 -420 0
v -350 -350 0
v -280 -350 0
v -350 -420 0
v -420 -420 0
v -420 -350 0
v -350 -350 0
v -420 -420 0
v -490 -420 0
v -490 -350 0
v -420 -350 0
v -490 -420 0
v -560 -420 0
v -560 -350 0
v -490 -350 0
v -560 -420 0
v -630 -420 0
v -630 -350 0
v -560 -350 0
v -630 -420 0
v -700 -420 0
v -700 -350 0
v -630 -350 0
v -700 -420 0
v -770 -420 0
v -770 -350 0
v -700 -350 0
v -770 -420 0
v -840 -420 0
v -840 -350 0
v -770 -350 0
v -840 -420 0
v -910 -420 0
v -910 -350 0
v -840 -350 0
v 0 -490 0
v -70 -490 0
v -70 -420 0
v 0 -420 0
v -70 -490 0
v -140 -490 0
v -140 -420 0
v -70 -420 0
v -140 -490 0
v -210 -490 0
v -210 -420 0
v -140 -420 0
v -210 -490 0
v -280 -490 0
v -280 -420 0
v -210 -420 0
v -280 -490 0
v -350 -490 0
v -350 -420 0
v -280 -420 0
v -350 -490 0
v -420 -490 0
v -420 -420 0
v -350 -420 0
v -420 -490 0
v -490 -490 0
v -490 -420 0
v -420 -420 0
v -490 -490 0
v -560 -490 0
v -560 -420 0
v -490 -420 0
v -560 -490 0
v -630 -490 0
v -630 -420 0
v -560 -420 0
v -630 -490 0
v -700 -490 0
v -700 -420 0
v -630 -420 0
v -700 -490 0
v -770 -490 0
v -770 -420 0
v -700 -420 0
v -770 -490 0
v -840 -490 0
v -840 -420 0
v -770 -420 0
v -840 -490 0
v -910 -490 0
v -910 -420 0
v -840 -420 0
v 0 -560 0
v -70 -560 0
v -70 -490 0
v 0 -490 0
v -70 -560 0
v -140 -560 0
v -140 -490 0
v -70 -490 0
v -140 -560 0
v -210 -560 0
v -210 -490 0
v -140 -490 0
v -210 -560 0
v -280 -560 0
v -280 -490 0
v -210 -490 0
v -280 -560 0
v -350 -560 0
v -350 -490 0
v -280 -490 0
v -350 -560 0
v -420 -560 0
v -420 -490 0
v -350 -490 0
v -420 -560 0
v -490 -560 0
v -490 -490 0
v -420 -490 0
v -490 -560 0
v -560 -560 0
v -560 -490 0
v -490 -490 0
v -560 -560 0
v -630 -560 0
v -630 -490 0
v -560 -490 0
v -630 -560 0
v -700 -560 0
v -700 -490 0
v -630 -490 0
v -700 -560 0
v -770 -560 0
v -770 -490 0
v -700 -490 0
v -770 -560 0
v -840 -560 0
v -840 -490 0
v -770 -490 0
v -840 -560 0
v -910 -560 0
v -910 -490 0
v -840 -490 0
v 0 -630 0
v -70 -630 0
v -70 -560 0
v 0 -560 0
v -70 -630 0
v -140 -630 0
v -140 -560 0
v -70 -560 0
v -140 -630 0
v -210 -630 0
v -210 -560 0
v -140 -560 0
v -210 -630 0
v -280 -630 0
v -280 -560 0
v -210 -560 0
v -280 -630 0
v -350 -630 0
v -350 -560 0
v -280 -560 0
v -350 -630 0
v -420 -630 0
v -420 -560 0
v -350 -560 0
v -420 -630 0
v -490 -630 0
v -490 -560 0
v -420 -560 0
v -490 -630 0
v -560 -630 0
v -560 -560 0
v -490 -560 0
v -560 -630 0
v -630 -630 0
v -630 -560 0
v -560 -560 0
v -630 -630 0
v -700 -630 0
v -700 -560 0
v -630 -560 0
v -700 -630 0
v -770 -630 0
v -770 -560 0
v -700 -560 0
v -770 -630 0
v -840 -630 0
v -840 -560 0
v -770 -560 0
v -840 -630 0
v -910 -630 0
v -910 -560 0
v -840 -560 0
v 0 -700 0
v -70 -700 0
v -70 -630 0
v 0 -630 0
v -70 -700 0
v -140 -700 0
v -140 -630 0
v -70 -630 0
v -140 -700 0
v -210 -700 0
v -210 -630 0
v -140 -630 0
v -210 -700 0
v -280 -700 0
v -280 -630 0
v -210 -630 0
v -280 -700 0
v -350 -700 0
v -350 -630 0
v -280 -630 0
v -350 -700 0
v -420 -700 0
v -420 -630 0
v -350 -630 0
v -420 -700 0
v -490 -700 0
v -490 -630 0
v -420 -630 0
v -490 -700 0
v -560 -700 0
v -560 -630 0
v -490 -630 0
v -560 -700 0
v -630 -700 0
v -630 -630 0
v -560 -630 0
v -630 -700 0
v -700 -700 0
v -700 -630 0
v -630 -630 0
v -700 -700 0
v -770 -700 0
v -770 -630 0
v -700 -630 0
v -770 -700 0
v -840 -700 0
v -840 -630 0
v -770 -630 0
v -840 -700 0
v -910 -700 0
v -910 -630 0
v -840 -630 0
v 0 -770 0
v -70 -770 0
v -70 -700 0
v 0 -700 0
v -70 -770 0
v -140 -770 0
v -140 -700 0
v -70 -700 0
v -140 -770 0
v -210 -770 0
v -210 -700 0
v -140 -700 0
v -210 -770 0
v -280 -770 0
v -280 -700 0
v -210 -700 0
v -280 -770 0
v -350 -770 0
v -350 -700 0
v -280 -700 0
v -350 -770 0
v -420 -770 0
v -420 -700 0
v -350 -700 0
v -420 -770 0
v -490 -770 0
v -490 -700 0
v -420 -700 0
v -490 -770 0
v -560 -770 0
v -560 -700 0
v -490 -700 0
v -560 -770 0
v -630 -770 0
v -630 -700 0
v -560 -700 0
v -630 -770 0
v -700 -770 0
v -700 -700 0
v -630 -700 0
v -700 -770 0
v -770 -770 0
v -770 -700 0
v -700 -700 0
v -770 -770 0
v -840 -770 0
v -840 -700 0
v -770 -700 0
v -840 -770 0
v -910 -770 0
v -910 -700 0
v -840 -700 0
v 0 -840 0
v -70 -840 0
v -70 -770 0
v 0 -770 0
v -70 -840 0
v -140 -840 0
v -140 -770 0
v -70 -770 0
v -140 -840 0
v -210 -840 0
v -210 -770 0
v -140 -770 0
v -210 -840 0
v -280 -840 0
v -280 -770 0
v -210 -770 0
v -280 -840 0
v -350 -840 0
v -350 -770 0
v -280 -770 0
v -350 -840 0
v -420 -840 0
v -420 -770 0
v -350 -770 0
v -420 -840 0
v -490 -840 0
v -490 -770 0
v -420 -770 0
v -490 -840 0
v -560 -840 0
v -560 -770 0
v -490 -770 0
v -560 -840 0
v -630 -840 0
v -630 -770 0
v -560 -770 0
v -630 -840 0
v -700 -840 0
v -700 -770 0
v -630 -770 0
v -700 -840 0
v -770 -840 0
v -770 -770 0
v -700 -770 0
v -770 -840 0
v -840 -840 0
v -840 -770 0
v -770 -770 0
v -840 -840 0
v -910 -840 0
v -910 -770 0
v -840 -770 0
v 0 -910 0
v -70 -910 0
v -70 -840 0
v 0 -840 0
v -70 -910 0
v -140 -910 0
v -140 -840 0
v -70 -840 0
v -140 -910 0
v -210 -910 0
v -210 -840 0
v -140 -840 0
v -210 -910 0
v -280 -910 0
v -280 -840 0
v -210 -840 0
v -280 -910 0
v -350 -910 0
v -350 -840 0
v -280 -840 0
v -350 -910 0
v -420 -910 0
v -420 -840 0
v -350 -840 0
v -420 -910 0
v -490 -910 0
v -490 -840 0
v -420 -840 0
v -490 -910 0
v -560 -910 0
v -560 -840 0
v -490 -840 0
v -560 -910 0
v -630 -910 0
v -630 -840 0
v -560 -840 0
v -630 -910 0
v -700 -910 0
v -700 -840 0
v -630 -840 0
v -700 -910 0
v -770 -910 0
v -770 -840 0
v -700 -840 0
v -770 -910 0
v -840 -910 0
v -840 -840 0
v -770 -840 0
v -840 -910 0
v -910 -910 0
v -910 -840 0
v -840 -840 0
v 0 -980 0
v -70 -980 0
v -70 -910 0
v 0 -910 0
v -70 -980 0
v -140 -980 0
v -140 -910 0
v -70 -910 0
v -140 -980 0
v -210 -980 0
v -210 -910 0
v -140 -910 0
v -210 -980 0
v -280 -980 0
v -280 -910 0
v -210 -910 0
v -280 -980 0
v -350 -980 0
v -350 -910 0
v -280 -910 0
v -350 -980 0
v -420 -980 0
v -420 -910 0
v -350 -910 0
v -420 -980 0
v -490 -980 0
v -490 -910 0
v -420 -910 0
v -490 -980 0
v -560 -980 0
v -560 -910 0
v -490 -910 0
v -560 -980 0
v -630 -980 0
v -630 -910 0
v -560 -910 0
v -630 -980 0
v -700 -980 0
v -700 -910 0
v -630 -910 0
v -700 -980 0
v -770 -980 0
v -770 -910 0
v -700 -910 0
v -770 -980 0
v -840 -980 0
v -840 -910 0
v -770 -910 0
v -840 -980 0
v -910 -980 0
v -910 -910 0
v -840 -910 0

# Texture cooridinates (Count = 16)
vt 0.8571429 0.5
vt 0.9285714 0.5
vt 0.9285714 1
vt 0.8571429 1
vt 0.8571429 0
vt 0.9285714 0
vt 1 0
vt 1 0.5
vt 0.2857143 0.5
vt 0.3571429 0.5
vt 0.3571429 1
vt 0.2857143 1
vt 0.2857143 0
vt 0.3571429 0
vt 0.4285714 0.5
vt 0.4285714 1

# Normal
vn 0 0 -1

# Mesh description
g girlRoom_mesh_0001

# Faces
f 1/1/1 2/2/1 3/3/1 4/4/1
f 5/1/1 6/2/1 7/3/1 8/4/1
f 9/1/1 10/2/1 11/3/1 12/4/1
f 13/1/1 14/2/1 15/3/1 16/4/1
f 17/1/1 18/2/1 19/3/1 20/4/1
f 21/1/1 22/2/1 23/3/1 24/4/1
f 25/1/1 26/2/1 27/3/1 28/4/1
f 29/1/1 30/2/1 31/3/1 32/4/1
f 33/1/1 34/2/1 35/3/1 36/4/1
f 37/1/1 38/2/1 39/3/1 40/4/1
f 41/1/1 42/2/1 43/3/1 44/4/1
f 45/1/1 46/2/1 47/3/1 48/4/1
f 49/1/1 50/2/1 51/3/1 52/4/1
f 53/1/1 54/2/1 55/3/1 56/4/1
f 57/5/1 58/6/1 59/2/1 60/1/1
f 61/6/1 62/7/1 63/8/1 64/2/1
f 65/9/1 66/10/1 67/11/1 68/12/1
f 69/9/1 70/10/1 71/11/1 72/12/1
f 73/9/1 74/10/1 75/11/1 76/12/1
f 77/9/1 78/10/1 79/11/1 80/12/1
f 81/9/1 82/10/1 83/11/1 84/12/1
f 85/9/1 86/10/1 87/11/1 88/12/1
f 89/9/1 90/10/1 91/11/1 92/12/1
f 93/9/1 94/10/1 95/11/1 96/12/1
f 97/9/1 98/10/1 99/11/1 100/12/1
f 101/1/1 102/2/1 103/3/1 104/4/1
f 105/1/1 106/2/1 107/3/1 108/4/1
f 109/5/1 110/6/1 111/2/1 112/1/1
f 113/6/1 114/7/1 115/8/1 116/2/1
f 117/9/1 118/10/1 119/11/1 120/12/1
f 121/9/1 122/10/1 123/11/1 124/12/1
f 125/9/1 126/10/1 127/11/1 128/12/1
f 129/9/1 130/10/1 131/11/1 132/12/1
f 133/9/1 134/10/1 135/11/1 136/12/1
f 137/9/1 138/10/1 139/11/1 140/12/1
f 141/9/1 142/10/1 143/11/1 144/12/1
f 145/9/1 146/10/1 147/11/1 148/12/1
f 149/9/1 150/10/1 151/11/1 152/12/1
f 153/1/1 154/2/1 155/3/1 156/4/1
f 157/1/1 158/2/1 159/3/1 160/4/1
f 161/5/1 162/6/1 163/2/1 164/1/1
f 165/6/1 166/7/1 167/8/1 168/2/1
f 169/9/1 170/10/1 171/11/1 172/12/1
f 173/9/1 174/10/1 175/11/1 176/12/1
f 177/9/1 178/10/1 179/11/1 180/12/1
f 181/9/1 182/10/1 183/11/1 184/12/1
f 185/9/1 186/10/1 187/11/1 188/12/1
f 189/9/1 190/10/1 191/11/1 192/12/1
f 193/9/1 194/10/1 195/11/1 196/12/1
f 197/9/1 198/10/1 199/11/1 200/12/1
f 201/9/1 202/10/1 203/11/1 204/12/1
f 205/1/1 206/2/1 207/3/1 208/4/1
f 209/1/1 210/2/1 211/3/1 212/4/1
f 213/5/1 214/6/1 215/2/1 216/1/1
f 217/6/1 218/7/1 219/8/1 220/2/1
f 221/13/1 222/14/1 223/10/1 224/9/1
f 225/13/1 226/14/1 227/10/1 228/9/1
f 229/13/1 230/14/1 231/10/1 232/9/1
f 233/13/1 234/14/1 235/10/1 236/9/1
f 237/13/1 238/14/1 239/10/1 240/9/1
f 241/13/1 242/14/1 243/10/1 244/9/1
f 245/13/1 246/14/1 247/10/1 248/9/1
f 249/13/1 250/14/1 251/10/1 252/9/1
f 253/13/1 254/14/1 255/10/1 256/9/1
f 257/1/1 258/2/1 259/3/1 260/4/1
f 261/1/1 262/2/1 263/3/1 264/4/1
f 265/5/1 266/6/1 267/2/1 268/1/1
f 269/6/1 270/7/1 271/8/1 272/2/1
f 273/10/1 274/15/1 275/16/1 276/11/1
f 277/10/1 278/15/1 279/16/1 280/11/1
f 281/10/1 282/15/1 283/16/1 284/11/1
f 285/10/1 286/15/1 287/16/1 288/11/1
f 289/10/1 290/15/1 291/16/1 292/11/1
f 293/10/1 294/15/1 295/16/1 296/11/1
f 297/10/1 298/15/1 299/16/1 300/11/1
f 301/10/1 302/15/1 303/16/1 304/11/1
f 305/10/1 306/15/1 307/16/1 308/11/1
f 309/1/1 310/2/1 311/3/1 312/4/1
f 313/1/1 314/2/1 315/3/1 316/4/1
f 317/10/1 318/15/1 319/16/1 320/11/1
f 321/10/1 322/15/1 323/16/1 324/11/1
f 325/10/1 326/15/1 327/16/1 328/11/1
f 329/10/1 330/15/1 331/16/1 332/11/1
f 333/10/1 334/15/1 335/16/1 336/11/1
f 337/10/1 338/15/1 339/16/1 340/11/1
f 341/10/1 342/15/1 343/16/1 344/11/1
f 345/10/1 346/15/1 347/16/1 348/11/1
f 349/10/1 350/15/1 351/16/1 352/11/1
f 353/10/1 354/15/1 355/16/1 356/11/1
f 357/10/1 358/15/1 359/16/1 360/11/1
f 361/1/1 362/2/1 363/3/1 364/4/1
f 365/1/1 366/2/1 367/3/1 368/4/1
f 369/10/1 370/15/1 371/16/1 372/11/1
f 373/10/1 374/15/1 375/16/1 376/11/1
f 377/10/1 378/15/1 379/16/1 380/11/1
f 381/10/1 382/15/1 383/16/1 384/11/1
f 385/10/1 386/15/1 387/16/1 388/11/1
f 389/10/1 390/15/1 391/16/1 392/11/1
f 393/10/1 394/15/1 395/16/1 396/11/1
f 397/10/1 398/15/1 399/16/1 400/11/1
f 401/10/1 402/15/1 403/16/1 404/11/1
f 405/10/1 406/15/1 407/16/1 408/11/1
f 409/10/1 410/15/1 411/16/1 412/11/1
f 413/1/1 414/2/1 415/3/1 416/4/1
f 417/1/1 418/2/1 419/3/1 420/4/1
f 421/10/1 422/15/1 423/16/1 424/11/1
f 425/10/1 426/15/1 427/16/1 428/11/1
f 429/10/1 430/15/1 431/16/1 432/11/1
f 433/10/1 434/15/1 435/16/1 436/11/1
f 437/10/1 438/15/1 439/16/1 440/11/1
f 441/10/1 442/15/1 443/16/1 444/11/1
f 445/10/1 446/15/1 447/16/1 448/11/1
f 449/10/1 450/15/1 451/16/1 452/11/1
f 453/10/1 454/15/1 455/16/1 456/11/1
f 457/10/1 458/15/1 459/16/1 460/11/1
f 461/10/1 462/15/1 463/16/1 464/11/1
f 465/1/1 466/2/1 467/3/1 468/4/1
f 469/1/1 470/2/1 471/3/1 472/4/1
f 473/10/1 474/15/1 475/16/1 476/11/1
f 477/10/1 478/15/1 479/16/1 480/11/1
f 481/10/1 482/15/1 483/16/1 484/11/1
f 485/10/1 486/15/1 487/16/1 488/11/1
f 489/10/1 490/15/1 491/16/1 492/11/1
f 493/10/1 494/15/1 495/16/1 496/11/1
f 497/10/1 498/15/1 499/16/1 500/11/1
f 501/10/1 502/15/1 503/16/1 504/11/1
f 505/10/1 506/15/1 507/16/1 508/11/1
f 509/10/1 510/15/1 511/16/1 512/11/1
f 513/10/1 514/15/1 515/16/1 516/11/1
f 517/1/1 518/2/1 519/3/1 520/4/1
f 521/1/1 522/2/1 523/3/1 524/4/1
f 525/10/1 526/15/1 527/16/1 528/11/1
f 529/10/1 530/15/1 531/16/1 532/11/1
f 533/10/1 534/15/1 535/16/1 536/11/1
f 537/10/1 538/15/1 539/16/1 540/11/1
f 541/10/1 542/15/1 543/16/1 544/11/1
f 545/10/1 546/15/1 547/16/1 548/11/1
f 549/10/1 550/15/1 551/16/1 552/11/1
f 553/10/1 554/15/1 555/16/1 556/11/1
f 557/10/1 558/15/1 559/16/1 560/11/1
f 561/10/1 562/15/1 563/16/1 564/11/1
f 565/10/1 566/15/1 567/16/1 568/11/1
f 569/1/1 570/2/1 571/3/1 572/4/1
f 573/1/1 574/2/1 575/3/1 576/4/1
f 577/5/1 578/6/1 579/2/1 580/1/1
f 581/6/1 582/7/1 583/8/1 584/2/1
f 585/10/1 586/15/1 587/16/1 588/11/1
f 589/10/1 590/15/1 591/16/1 592/11/1
f 593/10/1 594/15/1 595/16/1 596/11/1
f 597/10/1 598/15/1 599/16/1 600/11/1
f 601/10/1 602/15/1 603/16/1 604/11/1
f 605/10/1 606/15/1 607/16/1 608/11/1
f 609/10/1 610/15/1 611/16/1 612/11/1
f 613/10/1 614/15/1 615/16/1 616/11/1
f 617/10/1 618/15/1 619/16/1 620/11/1
f 621/1/1 622/2/1 623/3/1 624/4/1
f 625/1/1 626/2/1 627/3/1 628/4/1
f 629/5/1 630/6/1 631/2/1 632/1/1
f 633/6/1 634/7/1 635/8/1 636/2/1
f 637/1/1 638/2/1 639/3/1 640/4/1
f 641/1/1 642/2/1 643/3/1 644/4/1
f 645/1/1 646/2/1 647/3/1 648/4/1
f 649/1/1 650/2/1 651/3/1 652/4/1
f 653/1/1 654/2/1 655/3/1 656/4/1
f 657/1/1 658/2/1 659/3/1 660/4/1
f 661/1/1 662/2/1 663/3/1 664/4/1
f 665/1/1 666/2/1 667/3/1 668/4/1
f 669/1/1 670/2/1 671/3/1 672/4/1
f 673/1/1 674/2/1 675/3/1 676/4/1
f 677/1/1 678/2/1 679/3/1 680/4/1
f 681/1/1 682/2/1 683/3/1 684/4/1
f 685/1/1 686/2/1 687/3/1 688/4/1
f 689/1/1 690/2/1 691/3/1 692/4/1
f 693/1/1 694/2/1 695/3/1 696/4/1
f 697/1/1 698/2/1 699/3/1 700/4/1
f 701/1/1 702/2/1 703/3/1 704/4/1
f 705/1/1 706/2/1 707/3/1 708/4/1
f 709/1/1 710/2/1 711/3/1 712/4/1
f 713/1/1 714/2/1 715/3/1 716/4/1
f 717/1/1 718/2/1 719/3/1 720/4/1
f 721/1/1 722/2/1 723/3/1 724/4/1
f 725/1/1 726/2/1 727/3/1 728/4/1

