# Tiled2Unity generated file. Do not modify by hand.
# Wavefront file for 'bathroom_mesh_0004.obj'

# Vertices (Count = 36)
v -350 -420 0
v -420 -420 0
v -420 -350 0
v -350 -350 0
v -420 -420 0
v -490 -420 0
v -490 -350 0
v -420 -350 0
v -490 -420 0
v -560 -420 0
v -560 -350 0
v -490 -350 0
v -350 -490 0
v -420 -490 0
v -420 -420 0
v -350 -420 0
v -420 -490 0
v -490 -490 0
v -490 -420 0
v -420 -420 0
v -490 -490 0
v -560 -490 0
v -560 -420 0
v -490 -420 0
v -350 -560 0
v -420 -560 0
v -420 -490 0
v -350 -490 0
v -420 -560 0
v -490 -560 0
v -490 -490 0
v -420 -490 0
v -490 -560 0
v -560 -560 0
v -560 -490 0
v -490 -490 0

# Texture cooridinates (Count = 16)
vt 0 0.6666666
vt 0.3333333 0.6666666
vt 0.3333333 1
vt 0 1
vt 0.6666667 0.6666666
vt 0.6666667 1
vt 1 0.6666666
vt 1 1
vt 0 0.3333333
vt 0.3333333 0.3333333
vt 0.6666667 0.3333333
vt 1 0.3333333
vt 0 0
vt 0.3333333 0
vt 0.6666667 0
vt 1 0

# Normal
vn 0 0 -1

# Mesh description
g bathroom_mesh_0004

# Faces
f 1/1/1 2/2/1 3/3/1 4/4/1
f 5/2/1 6/5/1 7/6/1 8/3/1
f 9/5/1 10/7/1 11/8/1 12/6/1
f 13/9/1 14/10/1 15/2/1 16/1/1
f 17/10/1 18/11/1 19/5/1 20/2/1
f 21/11/1 22/12/1 23/7/1 24/5/1
f 25/13/1 26/14/1 27/10/1 28/9/1
f 29/14/1 30/15/1 31/11/1 32/10/1
f 33/15/1 34/16/1 35/12/1 36/11/1

