# Tiled2Unity generated file. Do not modify by hand.
# Wavefront file for 'bathroom_mesh_0007.obj'

# Vertices (Count = 24)
v -980 -350 0
v -1050 -350 0
v -1050 -280 0
v -980 -280 0
v -1050 -350 0
v -1120 -350 0
v -1120 -280 0
v -1050 -280 0
v -980 -420 0
v -1050 -420 0
v -1050 -350 0
v -980 -350 0
v -1050 -420 0
v -1120 -420 0
v -1120 -350 0
v -1050 -350 0
v -980 -490 0
v -1050 -490 0
v -1050 -420 0
v -980 -420 0
v -1050 -490 0
v -1120 -490 0
v -1120 -420 0
v -1050 -420 0

# Texture cooridinates (Count = 12)
vt 0 0.75
vt 0.5 0.75
vt 0.5 1
vt 0 1
vt 1 0.75
vt 1 1
vt 0 0.5
vt 0.5 0.5
vt 1 0.5
vt 0 0.25
vt 0.5 0.25
vt 1 0.25

# Normal
vn 0 0 -1

# Mesh description
g bathroom_mesh_0007

# Faces
f 1/1/1 2/2/1 3/3/1 4/4/1
f 5/2/1 6/5/1 7/6/1 8/3/1
f 9/7/1 10/8/1 11/2/1 12/1/1
f 13/8/1 14/9/1 15/5/1 16/2/1
f 17/10/1 18/11/1 19/8/1 20/7/1
f 21/11/1 22/12/1 23/9/1 24/8/1

