# Tiled2Unity generated file. Do not modify by hand.
# Wavefront file for 'garden_mesh_0011.obj'

# Vertices (Count = 12)
v -490 -490 0
v -560 -490 0
v -560 -420 0
v -490 -420 0
v -560 -490 0
v -630 -490 0
v -630 -420 0
v -560 -420 0
v -630 -490 0
v -700 -490 0
v -700 -420 0
v -630 -420 0

# Texture cooridinates (Count = 8)
vt 0 0.5
vt 0.3333333 0.5
vt 0.3333333 1
vt 0 1
vt 0.6666667 0.5
vt 0.6666667 1
vt 1 0.5
vt 1 1

# Normal
vn 0 0 -1

# Mesh description
g garden_mesh_0011

# Faces
f 1/1/1 2/2/1 3/3/1 4/4/1
f 5/2/1 6/5/1 7/6/1 8/3/1
f 9/5/1 10/7/1 11/8/1 12/6/1

