# Tiled2Unity generated file. Do not modify by hand.
# Wavefront file for 'garden_mesh_0003.obj'

# Vertices (Count = 16)
v -280 -350 0
v -350 -350 0
v -350 -280 0
v -280 -280 0
v -350 -350 0
v -420 -350 0
v -420 -280 0
v -350 -280 0
v -280 -420 0
v -350 -420 0
v -350 -350 0
v -280 -350 0
v -350 -420 0
v -420 -420 0
v -420 -350 0
v -350 -350 0

# Texture cooridinates (Count = 9)
vt 0 0.5
vt 0.5 0.5
vt 0.5 1
vt 0 1
vt 1 0.5
vt 1 1
vt 0 0
vt 0.5 0
vt 1 0

# Normal
vn 0 0 -1

# Mesh description
g garden_mesh_0003

# Faces
f 1/1/1 2/2/1 3/3/1 4/4/1
f 5/2/1 6/5/1 7/6/1 8/3/1
f 9/7/1 10/8/1 11/2/1 12/1/1
f 13/8/1 14/9/1 15/5/1 16/2/1

