# Tiled2Unity generated file. Do not modify by hand.
# Wavefront file for 'garden_mesh_0002.obj'

# Vertices (Count = 176)
v -280 -210 0
v -350 -210 0
v -350 -140 0
v -280 -140 0
v -350 -210 0
v -420 -210 0
v -420 -140 0
v -350 -140 0
v -420 -210 0
v -490 -210 0
v -490 -140 0
v -420 -140 0
v -490 -210 0
v -560 -210 0
v -560 -140 0
v -490 -140 0
v -560 -210 0
v -630 -210 0
v -630 -140 0
v -560 -140 0
v -630 -210 0
v -700 -210 0
v -700 -140 0
v -630 -140 0
v -700 -210 0
v -770 -210 0
v -770 -140 0
v -700 -140 0
v -770 -210 0
v -840 -210 0
v -840 -140 0
v -770 -140 0
v -840 -210 0
v -910 -210 0
v -910 -140 0
v -840 -140 0
v -910 -210 0
v -980 -210 0
v -980 -140 0
v -910 -140 0
v -980 -210 0
v -1050 -210 0
v -1050 -140 0
v -980 -140 0
v -280 -280 0
v -350 -280 0
v -350 -210 0
v -280 -210 0
v -350 -280 0
v -420 -280 0
v -420 -210 0
v -350 -210 0
v -420 -280 0
v -490 -280 0
v -490 -210 0
v -420 -210 0
v -490 -280 0
v -560 -280 0
v -560 -210 0
v -490 -210 0
v -560 -280 0
v -630 -280 0
v -630 -210 0
v -560 -210 0
v -630 -280 0
v -700 -280 0
v -700 -210 0
v -630 -210 0
v -700 -280 0
v -770 -280 0
v -770 -210 0
v -700 -210 0
v -770 -280 0
v -840 -280 0
v -840 -210 0
v -770 -210 0
v -840 -280 0
v -910 -280 0
v -910 -210 0
v -840 -210 0
v -910 -280 0
v -980 -280 0
v -980 -210 0
v -910 -210 0
v -980 -280 0
v -1050 -280 0
v -1050 -210 0
v -980 -210 0
v -280 -350 0
v -350 -350 0
v -350 -280 0
v -280 -280 0
v -350 -350 0
v -420 -350 0
v -420 -280 0
v -350 -280 0
v -420 -350 0
v -490 -350 0
v -490 -280 0
v -420 -280 0
v -490 -350 0
v -560 -350 0
v -560 -280 0
v -490 -280 0
v -560 -350 0
v -630 -350 0
v -630 -280 0
v -560 -280 0
v -630 -350 0
v -700 -350 0
v -700 -280 0
v -630 -280 0
v -700 -350 0
v -770 -350 0
v -770 -280 0
v -700 -280 0
v -770 -350 0
v -840 -350 0
v -840 -280 0
v -770 -280 0
v -840 -350 0
v -910 -350 0
v -910 -280 0
v -840 -280 0
v -910 -350 0
v -980 -350 0
v -980 -280 0
v -910 -280 0
v -980 -350 0
v -1050 -350 0
v -1050 -280 0
v -980 -280 0
v -280 -420 0
v -350 -420 0
v -350 -350 0
v -280 -350 0
v -350 -420 0
v -420 -420 0
v -420 -350 0
v -350 -350 0
v -420 -420 0
v -490 -420 0
v -490 -350 0
v -420 -350 0
v -490 -420 0
v -560 -420 0
v -560 -350 0
v -490 -350 0
v -560 -420 0
v -630 -420 0
v -630 -350 0
v -560 -350 0
v -630 -420 0
v -700 -420 0
v -700 -350 0
v -630 -350 0
v -700 -420 0
v -770 -420 0
v -770 -350 0
v -700 -350 0
v -770 -420 0
v -840 -420 0
v -840 -350 0
v -770 -350 0
v -840 -420 0
v -910 -420 0
v -910 -350 0
v -840 -350 0
v -910 -420 0
v -980 -420 0
v -980 -350 0
v -910 -350 0
v -980 -420 0
v -1050 -420 0
v -1050 -350 0
v -980 -350 0

# Texture cooridinates (Count = 30)
vt 0 0.6666666
vt 0.1428571 0.6666666
vt 0.1428571 1
vt 0 1
vt 0.2857143 0.6666666
vt 0.2857143 1
vt 0.4285714 0.6666666
vt 0.4285714 1
vt 0.5714286 0.6666666
vt 0.5714286 1
vt 0.7142857 0.6666666
vt 0.7142857 1
vt 0.8571429 0.6666666
vt 0.8571429 1
vt 0 0.3333333
vt 0.1428571 0.3333333
vt 0.2857143 0.3333333
vt 0.4285714 0.3333333
vt 0.5714286 0.3333333
vt 0.7142857 0.3333333
vt 0.8571429 0.3333333
vt 0 0
vt 0.1428571 0
vt 0.2857143 0
vt 0.4285714 0
vt 0.5714286 0
vt 0.7142857 0
vt 0.8571429 0
vt 1 0
vt 1 0.3333333

# Normal
vn 0 0 -1

# Mesh description
g garden_mesh_0002

# Faces
f 1/1/1 2/2/1 3/3/1 4/4/1
f 5/2/1 6/5/1 7/6/1 8/3/1
f 9/5/1 10/7/1 11/8/1 12/6/1
f 13/7/1 14/9/1 15/10/1 16/8/1
f 17/9/1 18/11/1 19/12/1 20/10/1
f 21/11/1 22/13/1 23/14/1 24/12/1
f 25/5/1 26/7/1 27/8/1 28/6/1
f 29/7/1 30/9/1 31/10/1 32/8/1
f 33/9/1 34/11/1 35/12/1 36/10/1
f 37/9/1 38/11/1 39/12/1 40/10/1
f 41/11/1 42/13/1 43/14/1 44/12/1
f 45/15/1 46/16/1 47/2/1 48/1/1
f 49/16/1 50/17/1 51/5/1 52/2/1
f 53/17/1 54/18/1 55/7/1 56/5/1
f 57/18/1 58/19/1 59/9/1 60/7/1
f 61/17/1 62/18/1 63/7/1 64/5/1
f 65/17/1 66/18/1 67/7/1 68/5/1
f 69/16/1 70/17/1 71/5/1 72/2/1
f 73/19/1 74/20/1 75/11/1 76/9/1
f 77/20/1 78/21/1 79/13/1 80/11/1
f 81/19/1 82/20/1 83/11/1 84/9/1
f 85/20/1 86/21/1 87/13/1 88/11/1
f 89/15/1 90/16/1 91/2/1 92/1/1
f 93/16/1 94/17/1 95/5/1 96/2/1
f 97/15/1 98/16/1 99/2/1 100/1/1
f 101/16/1 102/17/1 103/5/1 104/2/1
f 105/19/1 106/20/1 107/11/1 108/9/1
f 109/15/1 110/16/1 111/2/1 112/1/1
f 113/16/1 114/17/1 115/5/1 116/2/1
f 117/17/1 118/18/1 119/7/1 120/5/1
f 121/18/1 122/19/1 123/9/1 124/7/1
f 125/19/1 126/20/1 127/11/1 128/9/1
f 129/20/1 130/21/1 131/13/1 132/11/1
f 133/22/1 134/23/1 135/16/1 136/15/1
f 137/23/1 138/24/1 139/17/1 140/16/1
f 141/24/1 142/25/1 143/18/1 144/17/1
f 145/25/1 146/26/1 147/19/1 148/18/1
f 149/26/1 150/27/1 151/20/1 152/19/1
f 153/27/1 154/28/1 155/21/1 156/20/1
f 157/28/1 158/29/1 159/30/1 160/21/1
f 161/25/1 162/26/1 163/19/1 164/18/1
f 165/26/1 166/27/1 167/20/1 168/19/1
f 169/27/1 170/28/1 171/21/1 172/20/1
f 173/28/1 174/29/1 175/30/1 176/21/1

