# Tiled2Unity generated file. Do not modify by hand.
# Wavefront file for 'garden_mesh_0007.obj'

# Vertices (Count = 16)
v -910 -560 0
v -980 -560 0
v -980 -490 0
v -910 -490 0
v -910 -630 0
v -980 -630 0
v -980 -560 0
v -910 -560 0
v -910 -700 0
v -980 -700 0
v -980 -630 0
v -910 -630 0
v -910 -770 0
v -980 -770 0
v -980 -700 0
v -910 -700 0

# Texture cooridinates (Count = 8)
vt 0 0.6666666
vt 1 0.6666666
vt 1 1
vt 0 1
vt 0 0.3333333
vt 1 0.3333333
vt 0 0
vt 1 0

# Normal
vn 0 0 -1

# Mesh description
g garden_mesh_0007

# Faces
f 1/1/1 2/2/1 3/3/1 4/4/1
f 5/5/1 6/6/1 7/2/1 8/1/1
f 9/5/1 10/6/1 11/2/1 12/1/1
f 13/7/1 14/8/1 15/6/1 16/5/1

