# Tiled2Unity generated file. Do not modify by hand.
# Wavefront file for 'garden_mesh_0008.obj'

# Vertices (Count = 32)
v -420 -910 0
v -490 -910 0
v -490 -840 0
v -420 -840 0
v -490 -910 0
v -560 -910 0
v -560 -840 0
v -490 -840 0
v -560 -910 0
v -630 -910 0
v -630 -840 0
v -560 -840 0
v -630 -910 0
v -700 -910 0
v -700 -840 0
v -630 -840 0
v -700 -910 0
v -770 -910 0
v -770 -840 0
v -700 -840 0
v -770 -910 0
v -840 -910 0
v -840 -840 0
v -770 -840 0
v -840 -910 0
v -910 -910 0
v -910 -840 0
v -840 -840 0
v -910 -910 0
v -980 -910 0
v -980 -840 0
v -910 -840 0

# Texture cooridinates (Count = 12)
vt 0 0
vt 0.2 0
vt 0.2 0.5
vt 0 0.5
vt 0.4 0
vt 0.4 0.5
vt 0.6 0
vt 0.6 0.5
vt 0.8 0
vt 0.8 0.5
vt 1 0
vt 1 0.5

# Normal
vn 0 0 -1

# Mesh description
g garden_mesh_0008

# Faces
f 1/1/1 2/2/1 3/3/1 4/4/1
f 5/2/1 6/5/1 7/6/1 8/3/1
f 9/5/1 10/7/1 11/8/1 12/6/1
f 13/7/1 14/9/1 15/10/1 16/8/1
f 17/9/1 18/11/1 19/12/1 20/10/1
f 21/1/1 22/2/1 23/3/1 24/4/1
f 25/2/1 26/5/1 27/6/1 28/3/1
f 29/9/1 30/11/1 31/12/1 32/10/1

